# xmcd
# 
# Track frame offsets:
#     150
#     15870
#     34485
#     40705
#     52217
#     67905
#     81812
#     95379
#     109297
#     118230
#     131115
#     144707
#     160067
#     173827
#     186675
#     199442
#     216425
#     227705
# 
# Disc length: 3203
# 
# Revision: 4
# Processed by: cddbd v1.5.2PL0 Copyright (c) Steve Scherf et al.
# Submitted via: fre:ac v1.1beta1pre5
# 
DISCID=100c8112
DTITLE=Various Artist - TV-Hits Vol. 3
DYEAR=1994
DGENRE=Soundtrack
TTITLE0=T. Scott - Starsky and Hutch
TTITLE1=A.Badalamenti - Twin Peaks
TTITLE2=D.Frontiere - Vegas
TTITLE3=Quincy Jones - The Virginian
TTITLE4=V.Cosma/D.Kelly - David Balfur
TTITLE5=Mike Post - Hill Street Blues
TTITLE6=Schwab/strecker - Anna - My Love Is A Tango
TTITLE7=Francis Lai - Der Alte
TTITLE8=E.Ferstl - Der Bastian
TTITLE9=Les Humphries - Derrick
TTITLE10=E.Schner - Das Erbe der Guldenburgs
TTITLE11=E.Thomas - Diese Drombuschs
TTITLE12=Klaus Doldinger - Ein Fall für Zwei
TTITLE13=A.Goraguer - Ich heirate eine Familie
TTITLE14=Konstantin Wecker - Kir Royal
TTITLE15=Klaus Doldinger - Liebling Kreuzberg
TTITLE16=G.P.Reverberi/D.Farina - Monaco Franze
TTITLE17=Francis Lai - Das Traumschiff
EXTD=
EXTT0=
EXTT1=
EXTT2=
EXTT3=
EXTT4=
EXTT5=
EXTT6=
EXTT7=
EXTT8=
EXTT9=
EXTT10=
EXTT11=
EXTT12=
EXTT13=
EXTT14=
EXTT15=
EXTT16=
EXTT17=
PLAYORDER=
